<mxfile host="app.diagrams.net" agent="Mozilla/5.0 (Windows NT 10.0; Win64; x64) AppleWebKit/537.36 (KHTML, like Gecko) Chrome/140.0.0.0 Safari/537.36" version="28.2.0" pages="3">
  <diagram name="Pagina-1" id="jErg7b3Fh_E4UN0Oh1Lq">
    <mxGraphModel dx="2934" dy="1600" grid="0" gridSize="10" guides="1" tooltips="1" connect="1" arrows="1" fold="1" page="0" pageScale="1" pageWidth="827" pageHeight="1169" math="0" shadow="0">
      <root>
        <mxCell id="0" />
        <mxCell id="1" parent="0" />
        <mxCell id="0zFbyzrFj0qQolu8ghqo-7" value="" style="rounded=0;whiteSpace=wrap;html=1;" vertex="1" parent="1">
          <mxGeometry x="597" y="22" width="773" height="255" as="geometry" />
        </mxCell>
        <mxCell id="0zFbyzrFj0qQolu8ghqo-4" value="" style="rounded=0;whiteSpace=wrap;html=1;" vertex="1" parent="1">
          <mxGeometry x="-334" y="-17" width="775" height="305" as="geometry" />
        </mxCell>
        <mxCell id="0zFbyzrFj0qQolu8ghqo-1" value="" style="rounded=0;whiteSpace=wrap;html=1;" vertex="1" parent="1">
          <mxGeometry x="-267" y="98.75" width="154" height="124.5" as="geometry" />
        </mxCell>
        <mxCell id="0zFbyzrFj0qQolu8ghqo-2" value="" style="rounded=0;whiteSpace=wrap;html=1;" vertex="1" parent="1">
          <mxGeometry x="-45" y="123" width="120" height="60" as="geometry" />
        </mxCell>
        <mxCell id="0zFbyzrFj0qQolu8ghqo-3" value="" style="rounded=0;whiteSpace=wrap;html=1;" vertex="1" parent="1">
          <mxGeometry x="181" y="131" width="120" height="60" as="geometry" />
        </mxCell>
        <mxCell id="0zFbyzrFj0qQolu8ghqo-5" value="" style="rounded=0;whiteSpace=wrap;html=1;" vertex="1" parent="1">
          <mxGeometry x="667" y="123" width="120" height="60" as="geometry" />
        </mxCell>
        <mxCell id="0zFbyzrFj0qQolu8ghqo-6" value="" style="rounded=0;whiteSpace=wrap;html=1;" vertex="1" parent="1">
          <mxGeometry x="1077" y="131" width="120" height="60" as="geometry" />
        </mxCell>
      </root>
    </mxGraphModel>
  </diagram>
  <diagram id="aLCBN1Z_O9Tzmv3RtyhV" name="Pagina-2">
    <mxGraphModel dx="1267" dy="600" grid="0" gridSize="10" guides="1" tooltips="1" connect="1" arrows="1" fold="1" page="0" pageScale="1" pageWidth="827" pageHeight="1169" math="0" shadow="0">
      <root>
        <mxCell id="0" />
        <mxCell id="1" parent="0" />
      </root>
    </mxGraphModel>
  </diagram>
  <diagram id="8MpJbb-6p8KLbcMHBWLM" name="Pagina-3">
    <mxGraphModel dx="1267" dy="600" grid="0" gridSize="10" guides="1" tooltips="1" connect="1" arrows="1" fold="1" page="0" pageScale="1" pageWidth="827" pageHeight="1169" math="0" shadow="0">
      <root>
        <mxCell id="0" />
        <mxCell id="1" parent="0" />
      </root>
    </mxGraphModel>
  </diagram>
</mxfile>
